<svg xmlns="http://www.w3.org/2000/svg" viewBox="0 0 65.35 56.96"><defs><style>.cls-1{fill:#00788b;}</style></defs><title>casa-beneficio</title><g id="Layer_2" data-name="Layer 2"><g id="Layer_1-2" data-name="Layer 1"><path class="cls-1" d="M64.59,24.74,53,15.56,33.92.43a2,2,0,0,0-2.48,0L.76,24.74A2,2,0,0,0,2,28.31H8.46V55a2,2,0,1,0,4,0V28.31H52.88V55a2,2,0,0,0,4,0V28.31h6.46a2,2,0,0,0,1.24-3.57ZM7.74,24.31,32.67,4.55,57.6,24.31Z"/><path class="cls-1" d="M39.35,33.31H26a2,2,0,0,0-2,2V55a2,2,0,0,0,2,2H39.35a2,2,0,0,0,2-2V35.31A2,2,0,0,0,39.35,33.31ZM37.35,53H28V37.31h9.35Z"/></g></g></svg>