<svg xmlns="http://www.w3.org/2000/svg" viewBox="0 0 37.3 58.67"><defs><style>.cls-1{fill:#00788b;}</style></defs><title>recuperacion-rapida-beneficio</title><g id="Layer_2" data-name="Layer 2"><g id="Layer_1-2" data-name="Layer 1"><path class="cls-1" d="M5.4,58.67a2,2,0,0,1-1.77-2.93L15.46,33.15H2A2,2,0,0,1,.44,29.9L24,.74A2,2,0,0,1,27.5,2.53l-5.21,19h13a2,2,0,0,1,1.48,3.34L6.89,58A2,2,0,0,1,5.4,58.67Zm.79-29.51H18.77a2,2,0,0,1,1.77,2.93l-6,11.51L30.8,25.54H19.66A2,2,0,0,1,17.73,23L21.11,10.7Z"/></g></g></svg>