<svg xmlns="http://www.w3.org/2000/svg" viewBox="0 0 68 68"><defs><style>.cls-1{fill:#00788b;}</style></defs><title>rapido-seguro-beneficio</title><g id="Layer_2" data-name="Layer 2"><g id="Layer_1-2" data-name="Layer 1"><path class="cls-1" d="M38.59,5A2.21,2.21,0,0,1,40.8,7.21V25A2.21,2.21,0,0,0,43,27.2H60.79A2.21,2.21,0,0,1,63,29.41v9.17a2.21,2.21,0,0,1-2.21,2.21H43A2.21,2.21,0,0,0,40.8,43V60.79A2.21,2.21,0,0,1,38.59,63H29.41a2.21,2.21,0,0,1-2.21-2.21V43A2.21,2.21,0,0,0,25,40.8H7.21A2.21,2.21,0,0,1,5,38.59V29.41A2.21,2.21,0,0,1,7.21,27.2H25A2.21,2.21,0,0,0,27.2,25V7.21A2.21,2.21,0,0,1,29.41,5h9.17m0-5H29.41A7.22,7.22,0,0,0,22.2,7.21v15h-15A7.22,7.22,0,0,0,0,29.41v9.17A7.22,7.22,0,0,0,7.21,45.8h15v15A7.22,7.22,0,0,0,29.41,68h9.17a7.22,7.22,0,0,0,7.21-7.21v-15h15A7.22,7.22,0,0,0,68,38.59V29.41a7.22,7.22,0,0,0-7.21-7.21h-15v-15A7.22,7.22,0,0,0,38.59,0Z"/></g></g></svg>