<?xml version="1.0" encoding="utf-8"?>
<!-- Generator: Adobe Illustrator 21.1.0, SVG Export Plug-In . SVG Version: 6.00 Build 0)  -->
<svg version="1.1" id="Layer_1" xmlns="http://www.w3.org/2000/svg" xmlns:xlink="http://www.w3.org/1999/xlink" x="0px" y="0px"
	 viewBox="0 0 800.1 642" style="enable-background:new 0 0 800.1 642;" xml:space="preserve">
<style type="text/css">
	.st0{fill:#10798B;}
	.st1{fill:#2DCCD3;}
</style>
<title>Globo-verde-dialogo</title>
<g id="Layer_2">
	<g id="Layer_1-2">
		<path class="st0" d="M789.9,408.6l-12.6-13.4l-8.2-8.7C773.7,365,776,343,776,321C776,147,635,6,461,6h-700v630h700
			c131.3,0,243.9-80.4,291.2-194.6l12.2-2.9l17.9-4.2c8.3-2,13.5-10.3,11.5-18.6C793.1,413,791.8,410.6,789.9,408.6z"/>
		<path class="st1" d="M461,642h-706V0h706c177.3,0,321,143.7,321,321c0,21.4-2.1,42.7-6.3,63.6l18.6,19.8
			c8.1,8.7,7.7,22.3-0.9,30.4c-2.8,2.6-6.1,4.4-9.8,5.3l-27,6.4C706.1,565.1,589.8,642,461,642z M-233,630h694
			c125.1,0.2,238-75.2,285.6-190.9l1.2-2.8l33-7.8c5.1-1.2,8.3-6.3,7.1-11.4c-0.4-1.6-1.2-3.1-2.3-4.3l-22.9-24.4l0.7-3.1
			c4.5-21.1,6.7-42.7,6.7-64.2c0-170.4-138.6-309-309-309h-694V630z"/>
	</g>
</g>
</svg>
