<svg xmlns="http://www.w3.org/2000/svg" viewBox="0 0 23.59 23.61"><defs><style>.cls-1{fill:#10798b;}</style></defs><title>telefono-verde</title><g id="Layer_2" data-name="Layer 2"><g id="Layer_1-2" data-name="Layer 1"><g id="Layer_2-2" data-name="Layer 2"><g id="Layer_1-2-2" data-name="Layer 1-2"><g id="Layer_2-2-2" data-name="Layer 2-2"><g id="Layer_1-2-2-2" data-name="Layer 1-2-2"><path class="cls-1" d="M6.13,2a.78.78,0,0,1,.29,0q.25.08.74,1.06l.42.75.49.89.43.75.24.35a4,4,0,0,1,.3.5.91.91,0,0,1,.1.4,1.16,1.16,0,0,1-.4.7,6.81,6.81,0,0,1-.86.77A8.37,8.37,0,0,0,7,9a1.07,1.07,0,0,0-.4.64.94.94,0,0,0,.07.31,2.94,2.94,0,0,0,.12.29c0,.07.1.18.2.33l.16.27a14.63,14.63,0,0,0,2.43,3.28,14.63,14.63,0,0,0,3.28,2.43l.27.16.33.2.29.12a.94.94,0,0,0,.31.07,1.07,1.07,0,0,0,.64-.4,8.37,8.37,0,0,0,.74-.87,6.81,6.81,0,0,1,.77-.86,1.16,1.16,0,0,1,.7-.4.91.91,0,0,1,.4.1,4,4,0,0,1,.5.3l.35.24.75.43.89.49.75.42q1,.49,1.06.74a.78.78,0,0,1,0,.29,4.62,4.62,0,0,1-.14,1,5.58,5.58,0,0,1-.29,1A3.74,3.74,0,0,1,19.48,21a5.17,5.17,0,0,1-3.33.66,6.08,6.08,0,0,1-.8-.17l-.66-.2L13.92,21l-.68-.25A12.65,12.65,0,0,1,10.8,19.6a20.68,20.68,0,0,1-3.69-3,20.68,20.68,0,0,1-3-3.69A12.65,12.65,0,0,1,3,10.4l-.29-.68L2.42,9q-.08-.22-.2-.66A6.08,6.08,0,0,1,2,7.48a5.36,5.36,0,0,1,0-.73,5.41,5.41,0,0,1,.71-2.59,3.74,3.74,0,0,1,1.48-1.7,5.58,5.58,0,0,1,1-.29,4.62,4.62,0,0,1,1-.14m0-2A6.48,6.48,0,0,0,4.7.21,7.44,7.44,0,0,0,3.39.62,5.39,5.39,0,0,0,1,3.18,7.43,7.43,0,0,0,0,6.75a7.39,7.39,0,0,0,.07,1A8,8,0,0,0,.3,8.82c.1.36.18.62.24.79l.3.81.23.61A14.81,14.81,0,0,0,2.43,13.9a22.75,22.75,0,0,0,3.29,4,22.76,22.76,0,0,0,4.05,3.29,14.69,14.69,0,0,0,2.82,1.34l.65.24.81.3.79.24a8,8,0,0,0,1.07.23,7.17,7.17,0,0,0,4.55-.89A5.41,5.41,0,0,0,23,20.19a7.39,7.39,0,0,0,.4-1.28,6.48,6.48,0,0,0,.19-1.43,2.74,2.74,0,0,0-.17-1,3.55,3.55,0,0,0-2-1.79l-.75-.42-.86-.47-.63-.36-.31-.21a5.85,5.85,0,0,0-.76-.45,2.9,2.9,0,0,0-1.27-.3,3.08,3.08,0,0,0-2.07.95,8.86,8.86,0,0,0-1,1.12l-.09.12a12.64,12.64,0,0,1-2.75-2A12.64,12.64,0,0,1,9,9.91l.12-.09a8.85,8.85,0,0,0,1.12-1,3.08,3.08,0,0,0,.95-2.08,2.9,2.9,0,0,0-.3-1.27,5.85,5.85,0,0,0-.46-.76l-.21-.31-.36-.63-.52-.85-.42-.75a3.55,3.55,0,0,0-1.79-2,2.74,2.74,0,0,0-1-.17Z"/></g></g></g></g></g></g></svg>