<svg xmlns="http://www.w3.org/2000/svg" viewBox="0 0 68.53 74"><defs><style>.cls-1{fill:#00788b;}</style></defs><title>librito-verde-agenda-cita</title><g id="Layer_2" data-name="Layer 2"><g id="Layer_1-2" data-name="Layer 1"><path class="cls-1" d="M59.52,0H14A9,9,0,0,0,5,9v4.74H3.25a3.25,3.25,0,0,0,0,6.5H5v6.83H3.25a3.25,3.25,0,0,0,0,6.5H5v6.83H3.25a3.25,3.25,0,0,0,0,6.5H5v6.83H3.25a3.25,3.25,0,0,0,0,6.5H5V65a9,9,0,0,0,9,9H59.52a9,9,0,0,0,9-9V9A9,9,0,0,0,59.52,0Zm2,65a2,2,0,0,1-2,2H14a2,2,0,0,1-2-2V60.25h1.88a3.25,3.25,0,1,0,0-6.5H12V46.92h1.88a3.25,3.25,0,0,0,0-6.5H12V33.58h1.88a3.25,3.25,0,0,0,0-6.5H12V20.25h1.88a3.25,3.25,0,0,0,0-6.5H12V9a2,2,0,0,1,2-2H59.52a2,2,0,0,1,2,2Z"/></g></g></svg>