<svg xmlns="http://www.w3.org/2000/svg" viewBox="0 0 69.91 90"><defs><style>.cls-1{fill:#00788b;}</style></defs><title>atencion-personalizada</title><g id="Layer_2" data-name="Layer 2"><g id="Layer_1-2" data-name="Layer 1"><path class="cls-1" d="M69.91,86.34v-6A35,35,0,0,0,0,80.29v6a3.65,3.65,0,1,0,7.31,0v-6a27.65,27.65,0,0,1,55.29,0v6a3.65,3.65,0,1,0,7.31,0Z"/><path class="cls-1" d="M35,0A17.68,17.68,0,1,0,52.61,17.68,17.69,17.69,0,0,0,35,0Zm0,28A10.35,10.35,0,1,1,45.3,17.68,10.36,10.36,0,0,1,35,28Z"/></g></g></svg>