<svg xmlns="http://www.w3.org/2000/svg" viewBox="0 0 100.92 90"><defs><style>.cls-1{fill:#fff;}.cls-2{fill:#00788b;}</style></defs><title>diferentes-metodos-pago</title><g id="Layer_2" data-name="Layer 2"><g id="Layer_1-2" data-name="Layer 1"><path class="cls-1" d="M47.21,7.82H85.69a.08.08,0,0,1,.08.08V75.56a.08.08,0,0,1-.08.08H47.08a.08.08,0,0,1-.08-.08V8a.21.21,0,0,1,.21-.21Z" transform="translate(21.77 -22.75) rotate(23.17)"/><path class="cls-2" d="M70.78,83.74l-1.17-.49L31.37,66.88,32.51,64,59.08,1.94A3.22,3.22,0,0,1,60.84.23a3.18,3.18,0,0,1,2.43,0l36.5,15.62a1.76,1.76,0,0,1,1,2.33c-.68,1.64-.49,1.21-.49,1.21S73.93,81.05,73.15,82.78A1.72,1.72,0,0,1,70.78,83.74Zm-31.63-20L69.29,76.6,93.62,19.75,63.48,6.85ZM59.88,17.77h0Z"/><path class="cls-1" d="M61.55,68.91,50.07,64a5.53,5.53,0,0,0-2.91-7.25L64,17.52a5.53,5.53,0,0,0,7.25-2.91l11.48,4.91a5.53,5.53,0,0,0,2.91,7.25L68.81,66A5.53,5.53,0,0,0,61.55,68.91Z"/><path class="cls-2" d="M62.63,71.61,47.37,65.08l.81-1.89a3.47,3.47,0,0,0-1.82-4.55l-1.89-.81,18.41-43,1.89.81a3.47,3.47,0,0,0,4.55-1.82l.81-1.89,15.26,6.53-.81,1.89a3.46,3.46,0,0,0,1.82,4.55l1.89.81-18.41,43L68,67.9a3.47,3.47,0,0,0-4.55,1.82ZM52.52,62.81l8.21,3.51a7.61,7.61,0,0,1,6.88-2.76L83,27.6a7.62,7.62,0,0,1-2.76-6.88L72,17.2A7.6,7.6,0,0,1,65.15,20l-15.39,36a7.61,7.61,0,0,1,2.76,6.89Z"/><path class="cls-2" d="M60.45,44.41A1.17,1.17,0,0,1,62,43.77a1.59,1.59,0,0,1,.6.48A4.88,4.88,0,0,0,64,45.54l1.26-3c-1.92-1.16-2.63-3-1.85-4.82a3.92,3.92,0,0,1,4.85-2.32l.29-.68a.63.63,0,1,1,1.16.49l-.28.67a5.71,5.71,0,0,1,1.87,1.53,1.2,1.2,0,0,1,.2,1.2,1.14,1.14,0,0,1-1.48.63,1.56,1.56,0,0,1-.49-.35,4.65,4.65,0,0,0-1-.87l-1.19,2.82c2.06,1.24,2.64,3,1.85,4.87a3.94,3.94,0,0,1-4.9,2.39l-.3.72a.63.63,0,1,1-1.16-.49l.28-.67a6.73,6.73,0,0,1-2.53-2.08,1.15,1.15,0,0,1-.14-1.18m6.91-6.82a1.42,1.42,0,0,0-1.42.93,1.3,1.3,0,0,0,.36,1.6Zm-.64,7.26a1.27,1.27,0,0,0-.39-1.59l-1.11,2.63a1.49,1.49,0,0,0,1.49-1"/><rect class="cls-1" x="14.42" y="37.89" width="37.68" height="60.55" rx="4.13" ry="4.13" transform="translate(-34.91 101.43) rotate(-90)"/><path class="cls-2" d="M59.41,90H7.12A7.13,7.13,0,0,1,0,82.88V53.45a7.13,7.13,0,0,1,7.12-7.12H59.41a7.13,7.13,0,0,1,7.12,7.12V82.88A7.13,7.13,0,0,1,59.41,90ZM7.12,52.32A1.14,1.14,0,0,0,6,53.45V82.88A1.14,1.14,0,0,0,7.12,84H59.41a1.14,1.14,0,0,0,1.14-1.14V53.45a1.14,1.14,0,0,0-1.14-1.14Z"/><line class="cls-1" x1="2.99" y1="60.6" x2="63.54" y2="60.6"/><rect class="cls-2" x="2.99" y="58.36" width="60.55" height="4.48"/></g></g></svg>