<svg xmlns="http://www.w3.org/2000/svg" width="81.52" height="155.99" viewBox="0 0 81.52 155.99"><defs><style>.cls-1{fill:#2cccd2;}.cls-2{fill:#fefefe;}</style></defs><title>glaucoma-congenito</title><g id="Layer_2" data-name="Layer 2"><g id="Layer_1-2" data-name="Layer 1"><g id="Layer_2-2" data-name="Layer 2"><g id="Layer_1-2-2" data-name="Layer 1-2"><path class="cls-1" d="M78.11,120.08H78a3.38,3.38,0,0,1-3.24-3.51V53.63a3.38,3.38,0,0,1,6.76,0v63.2A3.38,3.38,0,0,1,78.11,120.08Z"/><path class="cls-1" d="M78.14,57a3.38,3.38,0,0,1-3.38-3.38V40.75A33.87,33.87,0,0,0,65.9,17.93a3.38,3.38,0,1,1,4.8-4.76l.2.22A40.62,40.62,0,0,1,81.51,40.75V53.63A3.38,3.38,0,0,1,78.14,57Z"/><path class="cls-1" d="M40.76,156A40.8,40.8,0,0,1,0,115.23V40.75A40.72,40.72,0,0,1,70.91,13.39a3.38,3.38,0,0,1-5,4.54A34,34,0,0,0,6.76,40.75v74.49a34,34,0,0,0,59.15,22.81,3.38,3.38,0,1,1,5,4.55A40.85,40.85,0,0,1,40.76,156Z"/><path class="cls-1" d="M68.41,143.7a3.38,3.38,0,0,1-2.5-5.65,34,34,0,0,0,8.83-21.48,3.38,3.38,0,0,1,6.75.26,40.76,40.76,0,0,1-10.58,25.76A3.37,3.37,0,0,1,68.41,143.7Z"/><path class="cls-1" d="M40.76,67.81A26.84,26.84,0,1,1,67.6,41v0A26.87,26.87,0,0,1,40.76,67.81Zm0-47.77A20.93,20.93,0,1,0,61.69,41,20.93,20.93,0,0,0,40.76,20Z"/><circle class="cls-2" cx="28.58" cy="41.92" r="3.1"/><circle class="cls-2" cx="52.93" cy="41.92" r="3.1"/><path class="cls-1" d="M9.22,136.56a3,3,0,0,1-1.56-5.47l62.79-38.9L3.33,67.63a3,3,0,1,1,2-5.55L78.19,88.74A3,3,0,0,1,78.73,94l-68,42.1A2.94,2.94,0,0,1,9.22,136.56Z"/><path class="cls-1" d="M43.29,54.17H38.22a2,2,0,0,1,0-4h5.07a2,2,0,0,1,0,4Z"/><path class="cls-1" d="M41,30.65a5.84,5.84,0,0,1-3-.86,7,7,0,0,1,3.12-12.9,1.27,1.27,0,0,1,.17,2.53,4.43,4.43,0,0,0-2,8.2,2.78,2.78,0,0,0,2.76.22,1.46,1.46,0,0,0,.61-1,.86.86,0,0,0-.18-.69,1.3,1.3,0,0,1-.15-.18.58.58,0,0,0-.47-.17.57.57,0,0,0-.46.2,1.27,1.27,0,1,1-2.2-1.25,3.18,3.18,0,0,1,5.17-.29,3.36,3.36,0,0,1,.81,2.69A4,4,0,0,1,43.36,30,4.55,4.55,0,0,1,41,30.65Z"/></g></g></g></g></svg>