<svg xmlns="http://www.w3.org/2000/svg" width="72.68" height="156.18" viewBox="0 0 72.68 156.18"><defs><style>.cls-1{fill:#2cccd2;}.cls-2{fill:#fff;}.cls-3{fill:#ff0333;}.cls-4{fill:#ffcd02;}</style></defs><title>glaucoma-angulo-abierto</title><g id="Layer_2" data-name="Layer 2"><g id="Layer_1-2" data-name="Layer 1"><g id="Layer_2-2" data-name="Layer 2"><g id="Layer_1-2-2" data-name="Layer 1-2"><path class="cls-1" d="M57.33,156.18a3.61,3.61,0,0,1-2-.6,94.73,94.73,0,0,1-24.26-23.11,62.65,62.65,0,0,1,.24-108.35A92.83,92.83,0,0,1,55.32.8a3.62,3.62,0,1,1,4,6A85.61,85.61,0,0,0,36.79,28.95,3.62,3.62,0,0,1,35.59,30a55.4,55.4,0,0,0-.25,96.53,3.62,3.62,0,0,1,1.15,1A87.5,87.5,0,0,0,59.33,149.5a3.62,3.62,0,0,1-2,6.65Z"/><path class="cls-2" d="M55,121.55c-3.11,0-7.52-2.36-10.83-13.61-2.3-7.81-3.56-18.14-3.56-29.1s1.26-21.29,3.56-29.1C47.47,38.49,51.88,36.18,55,36.18c9.09,0,17.69,20.76,17.69,42.71S64.08,121.55,55,121.55Zm0-80.24c-3.13,0-9.21,13.25-9.21,37.53s6.08,37.54,9.21,37.54c3.61,0,12.51-15,12.51-37.53S58.6,41.31,55,41.31Z"/><path class="cls-1" d="M61.4,149.87a2.08,2.08,0,0,1-.55-.08,8,8,0,0,1-5.7-8.5,14.9,14.9,0,0,1,.28-1.51c.14-.66.34-1.56.17-1.81a3.5,3.5,0,0,0-.4-.39,5.19,5.19,0,0,1-1.82-5.49c0-.33.06-.65.07-.92a4,4,0,0,0-7.77-1.65,2.07,2.07,0,0,1-3.86-.1c-.8-2.23-1.57-4.35-2.51-6.39a4.89,4.89,0,0,1-.11,2.11,3.79,3.79,0,0,1-2,2.31,3.15,3.15,0,0,1-2.59.1,2.07,2.07,0,0,1,.56-4,3.21,3.21,0,0,0-.19-.77L28.08,98a2.07,2.07,0,0,1,.09-1.37,3.49,3.49,0,0,1,2.25-2,4.25,4.25,0,0,1,3.51.49,6.68,6.68,0,0,1,2.51,3.72,45.89,45.89,0,0,1,1.6,7.8,36.22,36.22,0,0,0,1.77,8,36.25,36.25,0,0,0,1.8,3.72c.37.69.74,1.4,1.1,2.13.65,1.33,1.22,2.69,1.74,4a8.13,8.13,0,0,1,13.13,6.64,12.25,12.25,0,0,1-.09,1.24,3.86,3.86,0,0,0,0,1.58,3.47,3.47,0,0,0,.4.39,6.12,6.12,0,0,1,1.1,1.17c1.18,1.72.76,3.63.46,5-.09.4-.17.79-.21,1.12a3.89,3.89,0,0,0,2.7,4,2.07,2.07,0,0,1-.55,4.07Z"/><path class="cls-1" d="M32.28,61.65h-.17a3,3,0,0,1-2.34-1.28,3.58,3.58,0,0,1-.57-1.87c-.3-4.71,1.63-8.88,3.51-12.91,1.53-3.3,3-6.42,3.18-9.68a6.84,6.84,0,0,0-1.29-4.83,2.07,2.07,0,0,1,3-2.88l.11.13A9.8,9.8,0,0,1,40,33.94a16.82,16.82,0,0,0,.34-1.76,1.66,1.66,0,0,1,.06-.54,9.14,9.14,0,0,1,.86-3.39A4.42,4.42,0,0,1,46.56,26a2.07,2.07,0,0,1,1.08,2.89.86.86,0,0,0,.59.49,2.69,2.69,0,0,0,2-1.68,13.58,13.58,0,0,0,.89-3c.11-.5.21-1,.34-1.48a21.76,21.76,0,0,1,8.81-12.56,2.07,2.07,0,0,1,2.32,3.43,17.57,17.57,0,0,0-7.11,10.12c-.11.44-.21.89-.3,1.33a16.88,16.88,0,0,1-1.21,4,6.62,6.62,0,0,1-5.82,4,4.86,4.86,0,0,1-3.59-1.82l0,.44a1.76,1.76,0,0,1-.07.6c-.52,4-2.26,7.6-3.94,11.06-.76,1.56-1.47,3-2.09,4.54a35.48,35.48,0,0,0-2.34,9A5.63,5.63,0,0,1,35,60.41,3.55,3.55,0,0,1,32.28,61.65Z"/><path class="cls-3" d="M32.9,70.87A7.24,7.24,0,0,1,30,70.18a9.35,9.35,0,0,1-5-6c-1.73-6,0-11,1.66-15.9.5-1.46,1-3,1.43-4.48a1,1,0,0,1,2,.55c-.43,1.58-1,3.11-1.47,4.6C27,53.74,25.45,58.25,27,63.61a7.27,7.27,0,0,0,3.8,4.69,4.18,4.18,0,0,0,3.61.16c1.57-.73,2.92-2.77,3.72-5.6a73.55,73.55,0,0,0,1.68-8.39c.32-2,.66-4.12,1.11-6.17C42.3,42.18,44.6,37.7,48,34.74c3.73-3.27,10.26-5,15-1.68a1,1,0,0,1-1.18,1.7c-3.89-2.69-9.32-1.21-12.46,1.54S44.22,43,43,48.75c-.44,2-.77,4-1.09,6a75.16,75.16,0,0,1-1.73,8.63c-.57,2-2,5.56-4.84,6.91A5.57,5.57,0,0,1,32.9,70.87Z"/><polygon class="cls-3" points="22.71 43.71 35.06 46.08 30.07 38.72 22.71 43.71"/><path class="cls-3" d="M57.07,125.55A14.29,14.29,0,0,1,48,122.1c-3.38-3-5.68-7.39-7-13.56-.46-2-.79-4.14-1.11-6.17A73.55,73.55,0,0,0,38.15,94c-.8-2.82-2.16-4.86-3.72-5.6a4.18,4.18,0,0,0-3.61.16A7.27,7.27,0,0,0,27,93.18c-1.55,5.37,0,9.88,1.63,14.65.51,1.49,1,3,1.47,4.6a1,1,0,0,1-2,.55c-.42-1.51-.93-3-1.43-4.48C25,103.68,23.28,98.64,25,92.65a9.35,9.35,0,0,1,5-6,6.2,6.2,0,0,1,5.33-.15c2.89,1.35,4.27,4.91,4.84,6.91A75.16,75.16,0,0,1,41.84,102c.32,2,.65,4.06,1.09,6,1.27,5.73,3.36,9.8,6.4,12.46s8.58,4.22,12.46,1.54a1.06,1.06,0,0,1,1.2,1.74A10.27,10.27,0,0,1,57.07,125.55Z"/><polygon class="cls-3" points="35.06 110.75 22.71 113.12 30.07 118.11 35.06 110.75"/><path class="cls-4" d="M9.2,24.95a2.06,2.06,0,0,1-.84-.18l-1.18-.53a2.07,2.07,0,0,1,1.68-3.79h0L10,21a2.07,2.07,0,0,1-.84,4Z"/><path class="cls-4" d="M25.45,32.18a2.06,2.06,0,0,1-.84-.18L21.9,30.8A2.07,2.07,0,1,1,23.58,27h0l2.71,1.17a2.07,2.07,0,0,1-.84,4Zm-8.12-3.61a2.06,2.06,0,0,1-.84-.18l-2.71-1.21a2.07,2.07,0,0,1,1.68-3.79h0l2.71,1.2a2.07,2.07,0,0,1-.84,4Z"/><path class="cls-4" d="M32.05,35.1a2.06,2.06,0,0,1-.84-.18L30,34.39a2.07,2.07,0,1,1,1.68-3.79h0l1.22.58a2.07,2.07,0,0,1-.84,4Z"/><path class="cls-4" d="M10.61,134.53a2.07,2.07,0,0,1-1-3.88l1.13-.63a2.07,2.07,0,0,1,2,3.62l-1.13.63A2.06,2.06,0,0,1,10.61,134.53Z"/><path class="cls-4" d="M16.92,131a2.07,2.07,0,0,1-1-3.88l2.59-1.44a2.07,2.07,0,0,1,2.16,3.53l-.16.09-2.59,1.44A2.06,2.06,0,0,1,16.92,131Zm7.77-4.32a2.07,2.07,0,0,1-1-3.88l2.59-1.44a2.07,2.07,0,0,1,2,3.62l-2.59,1.44a2.06,2.06,0,0,1-1,.26Z"/><path class="cls-4" d="M32.45,122.38a2.07,2.07,0,0,1-1-3.88l1.13-.63a2.07,2.07,0,1,1,2.16,3.53l-.16.09-1.13.63A2.06,2.06,0,0,1,32.45,122.38Z"/></g></g></g></g></svg>