<svg xmlns="http://www.w3.org/2000/svg" width="78.53" height="155.82" viewBox="0 0 78.53 155.82"><defs><style>.cls-1{fill:#2cccd2;}.cls-2{fill:#fff;}.cls-3{fill:#ff0333;}.cls-4{fill:#ffcd02;}</style></defs><title>glaucoma-angulo-cerrado_1</title><g id="Layer_2" data-name="Layer 2"><g id="Layer_1-2" data-name="Layer 1"><g id="Layer_2-2" data-name="Layer 2"><g id="Layer_1-2-2" data-name="Layer 1-2"><path class="cls-1" d="M27,61.49a7.78,7.78,0,0,1-7.17-4.62c-2-4.59-1.33-12.4,2.47-16a2.07,2.07,0,0,1,3,2.81l-.2.19c-2.4,2.27-2.85,8.24-1.51,11.35a3.69,3.69,0,0,0,4.59,1.91c1.85-.62,3-2.86,4.19-5L33,51.07a25.33,25.33,0,0,0,1.35-3c.86-2.19,1.75-4.44,4.45-6.25,1.69-1.16,2.1-4,2.54-6.92C42,30.22,43,23.82,50.72,23.34c1.07-.07,2.22-.07,3.43-.08,6.43,0,10.67-.39,11-4.94A10.55,10.55,0,0,1,65.21,17c.05-2.11.13-5,2.64-6.5a7.15,7.15,0,0,1,2.25-.82,4,4,0,0,0,1-.28,2.09,2.09,0,1,1,3,2.91h0a5.62,5.62,0,0,1-3,1.42,4.17,4.17,0,0,0-1,.29c-.55.33-.59,1.78-.62,3a12.39,12.39,0,0,1-.07,1.58c-.73,8.67-9.41,8.7-15.16,8.73-1.15,0-2.24,0-3.2.07-4,.25-4.72,2.52-5.54,8C45,39,44.4,43,41.22,45.16c-1.66,1.14-2.17,2.44-3,4.39A29,29,0,0,1,36.69,53l-.54,1c-1.39,2.62-3.11,5.88-6.54,7A8,8,0,0,1,27,61.49Z"/><path class="cls-1" d="M65.49,155.82a3.6,3.6,0,0,1-2-.6,94.72,94.72,0,0,1-24.26-23.11,62.65,62.65,0,0,1,.24-108.35A92.82,92.82,0,0,1,63.47.44a3.62,3.62,0,0,1,4,6A85.6,85.6,0,0,0,44.94,28.59a3.63,3.63,0,0,1-1.2,1.09,55.4,55.4,0,0,0-.25,96.53,3.62,3.62,0,0,1,1.15,1,87.48,87.48,0,0,0,22.84,21.93,3.62,3.62,0,0,1-2,6.65Z"/><path class="cls-2" d="M60.84,121.19c-3.11,0-7.52-2.36-10.83-13.61-2.3-7.81-3.56-18.14-3.56-29.1S47.71,57.19,50,49.38c3.31-11.24,7.71-13.56,10.83-13.56,9.09,0,17.69,20.76,17.69,42.71S69.93,121.19,60.84,121.19Zm0-80.24c-3.13,0-9.21,13.25-9.21,37.53S57.72,116,60.84,116c3.61,0,12.51-15,12.51-37.53S64.44,41,60.84,41Z"/><path class="cls-1" d="M71.37,145.21a2.06,2.06,0,0,1-.55-.08,24,24,0,0,0-5.18-.61c-1-.05-2.09-.1-3.13-.22a4.6,4.6,0,0,1-2.3-.77,4.74,4.74,0,0,1-1.69-3.77,4.85,4.85,0,0,0-.12-.87,5,5,0,0,0-.94-1.12A7.61,7.61,0,0,1,55.52,135a8.16,8.16,0,0,1-.33-3.42,10.9,10.9,0,0,0,0-1.18c-.09-1.53-.76-2-1.72-2.11-2.52-.42-5.81,1.34-6.42,2.27a2.07,2.07,0,1,1-4,1.07,1.2,1.2,0,0,0-.09-.29,70.07,70.07,0,0,0-5.67-12.63,80.36,80.36,0,0,1-4.59-9.63c-.89-2.4-1.87-3.83-3.1-4.5a3.57,3.57,0,0,0-3.46-.07,6.87,6.87,0,0,0-3.49,4.86,2.07,2.07,0,1,1-4.09-.65,11.09,11.09,0,0,1,5.79-7.94,7.7,7.7,0,0,1,7.27.17c2.82,1.55,4.19,4.56,5,6.69A77.34,77.34,0,0,0,41,116.82a97.62,97.62,0,0,1,4.65,9.59c2.69-1.84,6.92-2.94,9.93-1.77a6,6,0,0,1,3.79,5.58,14.37,14.37,0,0,1,0,1.65,5,5,0,0,0,.08,1.76,4.28,4.28,0,0,0,1,1.25,8.12,8.12,0,0,1,1.68,2.26,6.55,6.55,0,0,1,.49,2.27,2.09,2.09,0,0,0,.09.75h.24c.92.1,1.87.15,2.88.2a27.5,27.5,0,0,1,6.09.76,2.07,2.07,0,0,1-.55,4.07Z"/><path class="cls-3" d="M64.33,126.82a11.47,11.47,0,0,1-2.82-.35c-5.3-1.34-10.27-6.39-15.17-15.43-1.87-3.44-3.53-7-5.13-10.51-1-2.14-2-4.35-3.07-6.49-.2-.4-.43-.92-.7-1.52-1.46-3.24-4.17-9.26-7.62-9.94-1.32-.26-2.72.24-4.16,1.67-1.07,1-1.16,2.24-.33,4.43a1,1,0,0,1-1.94.74h0c-.77-2-1.37-4.6.85-6.67,2-1.85,4-2.59,6-2.19,4.5.9,7.38,7.3,9.11,11.12.26.57.48,1.07.67,1.45,1.08,2.16,2.08,4.39,3.08,6.54,1.59,3.44,3.24,7,5.07,10.39,4.61,8.5,9.15,13.22,13.86,14.41,2.88.73,5.75.12,8.78-1.87a1,1,0,0,1,1.13,1.73A13.86,13.86,0,0,1,64.33,126.82Z"/><polygon class="cls-3" points="29.9 85.89 18.24 90.62 26.43 94.09 29.9 85.89"/><path class="cls-3" d="M29.17,74.4a7.28,7.28,0,0,1-4.93-2.3C22,70,22.63,67.44,23.39,65.43a1,1,0,0,1,1.94.74h0c-.83,2.18-.74,3.42.33,4.43,1.48,1.39,2.84,1.94,4.15,1.67,3.45-.69,6.17-6.71,7.62-9.94.27-.6.5-1.11.7-1.52,1.06-2.14,2.08-4.35,3.07-6.49,1.61-3.5,3.27-7.08,5.14-10.5,4.9-9,9.87-14.09,15.17-15.43,3.42-.86,6.93-.14,10.42,2.14a1,1,0,1,1-1.13,1.73c-3-2-5.91-2.59-8.78-1.86-4.71,1.19-9.24,5.9-13.86,14.41-1.83,3.38-3.48,6.94-5.07,10.39-1,2.15-2,4.37-3.09,6.54-.19.39-.41.88-.67,1.45C37.61,67,34.72,73.42,30.22,74.31A5.35,5.35,0,0,1,29.17,74.4Z"/><polygon class="cls-3" points="18.24 64.22 29.9 68.95 26.43 60.76 18.24 64.22"/><path class="cls-4" d="M6.68,49a2.06,2.06,0,0,1-.84-.16l-1.18-.53A2.07,2.07,0,1,1,6.34,44.5L7.52,45a2.07,2.07,0,0,1-.84,4Z"/><path class="cls-4" d="M32.77,60.56a2.06,2.06,0,0,1-.84-.18l-2.17-1a2.07,2.07,0,1,1,1.68-3.79h0l2.17,1a2.07,2.07,0,0,1-.84,4Zm-6.52-2.9a2.06,2.06,0,0,1-.84-.18l-2.17-1a2.07,2.07,0,0,1,1.68-3.79l2.17,1a2.07,2.07,0,0,1-.84,4Zm-6.52-2.9a2.06,2.06,0,0,1-.84-.18l-2.17-1a2.07,2.07,0,0,1,1.67-3.76l2.17,1a2.07,2.07,0,0,1-.84,4Zm-6.52-2.9a2.06,2.06,0,0,1-.84-.18l-2.17-1a2.07,2.07,0,0,1,1.68-3.79h0l2.17,1a2.07,2.07,0,0,1-.84,4Z"/><path class="cls-4" d="M38.3,63a2.07,2.07,0,0,1-.84-.18l-1.18-.53A2.07,2.07,0,0,1,38,58.52h0l1.18.53a2.07,2.07,0,0,1-.84,4Z"/><path class="cls-4" d="M2.17,109a2.07,2.07,0,0,1-.84-4l1.18-.53a2.07,2.07,0,1,1,1.68,3.79h0L3,108.82A2.07,2.07,0,0,1,2.17,109Z"/><path class="cls-4" d="M8.18,106.34a2.07,2.07,0,0,1-.84-4l2.41-1.07a2.07,2.07,0,1,1,1.68,3.79h0L9,106.13A2.07,2.07,0,0,1,8.18,106.34Zm7.23-3.21a2.07,2.07,0,0,1-.84-4L17,98.06a2.07,2.07,0,1,1,1.68,3.79h0l-2.41,1.07A2.07,2.07,0,0,1,15.41,103.13Zm7.23-3.21a2.07,2.07,0,0,1-.84-4l2.41-1.07a2.07,2.07,0,0,1,1.68,3.79l-2.41,1.07a2.07,2.07,0,0,1-.83.21Zm7.23-3.21a2.07,2.07,0,0,1-.84-4l2.41-1.07a2.08,2.08,0,0,1,1.66,3.82l-2.41,1.07a2.07,2.07,0,0,1-.81.18Z"/><path class="cls-4" d="M37.1,93.5a2.07,2.07,0,0,1-.84-4L37.44,89a2.09,2.09,0,1,1,1.66,3.84l-1.18.52A2.06,2.06,0,0,1,37.1,93.5Z"/></g></g></g></g></svg>