<svg xmlns="http://www.w3.org/2000/svg" width="186.23" height="164.26" viewBox="0 0 186.23 164.26"><defs><style>.cls-1{fill:#ffcd02;}.cls-2{fill:#2cccd2;}.cls-3{fill:#fff;}.cls-4{fill:#e30613;}</style></defs><title>glaucoma-tension-normal</title><g id="Layer_2" data-name="Layer 2"><g id="Layer_1-2" data-name="Layer 1"><g id="Layer_2-2" data-name="Layer 2"><g id="Layer_1-2-2" data-name="Layer 1-2"><path class="cls-1" d="M55.52,111.17c-8.33,0-12.12-15.05-12.12-29s3.79-29,12.12-29,12.12,15.05,12.12,29S63.85,111.17,55.52,111.17Zm0-52.06c-1.77,0-6.11,8.07-6.11,23s4.34,23,6.11,23,6.11-8.07,6.11-23-4.34-23-6.11-23Z"/><path class="cls-2" d="M91,164.26H88.7C64,163.92,40.47,151.16,25.79,130A54.26,54.26,0,0,1,6.65,109.33C-7.29,83,1.4,49.61,26,34.41,40.51,12.92,64,.08,89.05,0c40.68,0,75.26,32.25,77.55,71.31H178a4.13,4.13,0,1,1,0,8.26H162.59a4.13,4.13,0,0,1-4.13-4.13h0c0-36.42-31.78-67.18-69.4-67.18C66.51,8.33,45.3,20.1,32.35,39.74A4.13,4.13,0,0,1,31,41C9.54,53.76,1.88,82.67,14,105.47a45.94,45.94,0,0,0,16.87,18,4.12,4.12,0,0,1,1.29,1.22C45.24,144,66.47,155.69,88.9,156c17.44.6,35.19-6.58,48.77-19.7,13-12.58,20.79-29.37,20.79-44.92a4.13,4.13,0,0,1,4.13-4.13h.24l15.42.92a4.13,4.13,0,0,1-.49,8.24l-11.21-.67C165.31,112.32,157,129,143.41,142.2,128.82,156.3,109.84,164.25,91,164.26Z"/><path class="cls-3" d="M93.46,139.86a56.89,56.89,0,0,1-35.61-12.49l-7,6A3.53,3.53,0,1,1,46.28,128h0l9.27-8a3.52,3.52,0,0,1,4.64,0,50,50,0,1,0,0-74.51,3.52,3.52,0,0,1-4.33.28l-9.27-6.33a3.53,3.53,0,1,1,4-5.81l7,4.81A57,57,0,1,1,93.46,139.86Z"/><path class="cls-3" d="M29.23,98.72c-8.42,0-14.29-6.53-14.29-15.89s5.88-15.89,14.29-15.89c6.16,0,8.34,8.56,8.34,15.89a29.67,29.67,0,0,1-1.52,9.9C34.13,97.94,31,98.72,29.23,98.72Zm-.06-25.78c-6,0-8.22,5.33-8.22,9.89s2.16,9.86,8.24,9.88c.72-.38,2.37-3.67,2.37-9.88S29.87,73.26,29.17,72.94Z"/><path class="cls-2" d="M33,66a3.52,3.52,0,0,1-3.11-5.15,52.35,52.35,0,0,1,9.67-13,3.52,3.52,0,1,1,4.93,5,45.35,45.35,0,0,0-8.37,11.28A3.52,3.52,0,0,1,33,66Z"/><path class="cls-2" d="M43.57,119.53a3.5,3.5,0,0,1-1.63-.4,52.38,52.38,0,0,1-13-9.67,3.52,3.52,0,0,1,5-4.93,45.37,45.37,0,0,0,11.28,8.37,3.52,3.52,0,0,1-1.64,6.63Z"/><path class="cls-3" d="M167.09,83.48a76.17,76.17,0,0,1-14.92-1.31c-.6-.12-1.25-.23-1.92-.34-2.61-.44-5.58-.93-7.62-2.49-2.39-1.83-3.92-4.37-5.39-6.82l-.24-.4c-3.2-5.33-7.28-11-13.22-12.65a29.18,29.18,0,0,0-5.07-.78c-3.34-.32-6.78-.65-9.55-2.89a17.07,17.07,0,0,1-2.9-3.28c-.31-.42-.61-.83-.94-1.23A18.94,18.94,0,0,0,90,44.3,1.42,1.42,0,0,1,88.51,43v0a1.43,1.43,0,0,1,1.37-1.49h0a21.85,21.85,0,0,1,17.7,8c.34.43.67.88,1,1.32a14.7,14.7,0,0,0,2.4,2.76c2.09,1.7,5,2,8,2.27a31.93,31.93,0,0,1,5.57.87c6.91,1.93,11.41,8.13,14.9,13.94l.24.4c1.33,2.22,2.72,4.52,4.67,6,1.48,1.13,4.07,1.56,6.35,1.94.71.12,1.4.23,2,.36,9.17,1.88,21,1.37,29.07.26a1.43,1.43,0,0,1,.39,2.84h0A114.16,114.16,0,0,1,167.09,83.48Z"/><path class="cls-3" d="M96,116.3a1.43,1.43,0,0,1-.75-2.66c3.4-2.09,7.27-1.67,11-1.25a29.94,29.94,0,0,0,5.8.27,17.93,17.93,0,0,0,6.65-2.16A30.5,30.5,0,0,0,131,98.56c.74-1.31,1.4-2.73,2-4.1a31.69,31.69,0,0,1,5.21-8.57c3.61-3.83,9.64-5.83,15.74-5.19,11.47,1.18,26,4.29,27.6,4.64a1.43,1.43,0,1,1-.61,2.8h0c-1.6-.35-16-3.43-27.28-4.59-5.23-.54-10.35,1.11-13.36,4.31a30.47,30.47,0,0,0-4.71,7.82c-.67,1.42-1.36,2.88-2.14,4.28A33.41,33.41,0,0,1,120,113a20.72,20.72,0,0,1-7.72,2.47,32.11,32.11,0,0,1-6.38-.28c-3.41-.38-6.63-.73-9.19.84A1.43,1.43,0,0,1,96,116.3Z"/><path class="cls-3" d="M91.9,126.47a18.39,18.39,0,0,1-2.2-.13,1.44,1.44,0,0,1,.34-2.85h0c7.07.85,13.89-3.2,15.86-9.43a1.44,1.44,0,1,1,2.74.87C106.47,121.79,99.5,126.47,91.9,126.47Z"/><path class="cls-3" d="M111.85,57.19a1.43,1.43,0,0,1-.89-.31c-1.71-1.36-1.9-3.52-2.05-5.27a6.55,6.55,0,0,0-.09-.89,11.32,11.32,0,0,0-6.61-8.85,1.43,1.43,0,0,1,1.12-2.64,14.08,14.08,0,0,1,8.34,11.16c0,.32.07.64.09,1,.12,1.38.24,2.68,1,3.27a1.43,1.43,0,0,1-.89,2.56Z"/><path class="cls-3" d="M106.23,65.08c-2.85,0-6.16-1.29-7.43-4.34a1.43,1.43,0,1,1,2.65-1.1h0c.8,1.93,3.3,2.74,5.36,2.55,2.28-.21,4.41-1.32,6.67-2.48l.4-.21c.55-.28,1.11-.61,1.68-.94,2-1.16,4.22-2.47,6.73-2.41a1.43,1.43,0,0,1,1.4,1.46h0a1.45,1.45,0,0,1-1.47,1.4c-1.69,0-3.48,1-5.22,2-.61.35-1.21.7-1.8,1l-.4.21c-2.4,1.24-4.88,2.53-7.72,2.79A6,6,0,0,1,106.23,65.08Z"/><path class="cls-3" d="M111.37,104.11a5.29,5.29,0,0,1-5-2.72,1.44,1.44,0,0,1,2.58-1.27c.56,1.14,2.49,1.37,3.95.86a15.74,15.74,0,0,0,2.91-1.51A22.6,22.6,0,0,1,118.54,98a11.51,11.51,0,0,1,13.17,2.36,1.45,1.45,0,1,1-2.09,2h0a8.68,8.68,0,0,0-9.93-1.69,20,20,0,0,0-2.36,1.3,18.13,18.13,0,0,1-3.46,1.77A7.66,7.66,0,0,1,111.37,104.11Z"/><path class="cls-4" d="M168.29,101.52a17.94,17.94,0,1,1,17.94-17.94A17.94,17.94,0,0,1,168.29,101.52Zm0-31.66A13.72,13.72,0,1,0,182,83.59h0a13.74,13.74,0,0,0-13.71-13.73Z"/></g></g></g></g></svg>