<svg xmlns="http://www.w3.org/2000/svg" viewBox="0 0 27.78 30"><defs><style>.cls-1{fill:#ffcc09;}</style></defs><title>agenda-tu-cita-boton</title><g id="Layer_2" data-name="Layer 2"><g id="Layer_1-2" data-name="Layer 1"><path class="cls-1" d="M24.13,0H5.7A3.66,3.66,0,0,0,2,3.65V5.57H1.32a1.32,1.32,0,0,0,0,2.64H2V11H1.32a1.32,1.32,0,0,0,0,2.64H2v2.77H1.32a1.32,1.32,0,0,0,0,2.64H2v2.77H1.32a1.32,1.32,0,0,0,0,2.64H2v1.92A3.66,3.66,0,0,0,5.7,30H24.13a3.66,3.66,0,0,0,3.65-3.65V3.65A3.66,3.66,0,0,0,24.13,0Zm.82,26.35a.82.82,0,0,1-.82.82H5.7a.82.82,0,0,1-.82-.82V24.43h.76a1.32,1.32,0,0,0,0-2.64H4.88V19h.76a1.32,1.32,0,0,0,0-2.64H4.88V13.61h.76a1.32,1.32,0,0,0,0-2.64H4.88V8.21h.76a1.32,1.32,0,0,0,0-2.64H4.88V3.65a.82.82,0,0,1,.82-.82H24.13a.82.82,0,0,1,.82.82Z"/></g></g></svg>