<svg xmlns="http://www.w3.org/2000/svg" viewBox="0 0 123.77 90"><defs><style>.cls-1{fill:#00788b;}</style></defs><title>medicos-certificados_1</title><g id="Layer_2" data-name="Layer 2"><g id="Layer_1-2" data-name="Layer 1"><path class="cls-1" d="M62.43,34.39A11.67,11.67,0,1,0,50.78,22.73,11.67,11.67,0,0,0,62.43,34.39Zm0-18.29a6.62,6.62,0,1,1-6.62,6.63A6.63,6.63,0,0,1,62.43,16.1Z"/><path class="cls-1" d="M24.2,23.33A11.67,11.67,0,1,0,12.55,11.67,11.67,11.67,0,0,0,24.2,23.33ZM24.2,5a6.63,6.63,0,1,1-6.62,6.63A6.63,6.63,0,0,1,24.2,5Z"/><path class="cls-1" d="M99.86,23.33A11.67,11.67,0,1,0,88.21,11.67,11.67,11.67,0,0,0,99.86,23.33ZM99.86,5a6.63,6.63,0,1,1-6.62,6.63A6.63,6.63,0,0,1,99.86,5Z"/><path class="cls-1" d="M99.79,27.49A23.88,23.88,0,0,0,77.27,43.21a24.76,24.76,0,0,0-30.56.66A24,24,0,0,0,0,51.45V74.87a2.86,2.86,0,1,0,5.73,0V51.45A18.09,18.09,0,0,1,9.42,40.51c.86,4.45,2.85,9.76,8,11.19V69.49a5.94,5.94,0,0,0,6,6,5.91,5.91,0,0,0,5-2.75l3.74-5.86a6.59,6.59,0,0,0,5.46-1.3V87.13a2.86,2.86,0,1,0,5.73,0v-24a19,19,0,0,1,4.28-12c.81,4.55,2.75,10.19,8.06,11.68V80.55a6,6,0,0,0,4.29,5.73,6,6,0,0,0,6.68-2.51l3.74-5.86A6.72,6.72,0,1,0,65,71.33a6.63,6.63,0,0,0,.8,3.11,2.81,2.81,0,0,0-.19.24l-3.83,6-.25.09a.23.23,0,0,1-.16-.22V60.27a2.86,2.86,0,0,0-2.86-2.87c-4.06,0-5.18-5.11-5.73-10.77a19,19,0,0,1,19-.23c-.3,3.24-1,10-4.58,10.88a2.87,2.87,0,1,0,1.31,5.58c5.78-1.36,7.74-7.4,8.52-12.17a19,19,0,0,1,4.61,12.41v24a2.86,2.86,0,1,0,5.73,0v-24a24.7,24.7,0,0,0-5.37-15.37,18.14,18.14,0,0,1,3.16-7.11c.87,4.43,2.87,9.65,8,11.08V69.49a5.94,5.94,0,0,0,6,6,5.91,5.91,0,0,0,5-2.75l3.74-5.86a6.84,6.84,0,1,0-4.55-3.46,2.8,2.8,0,0,0-.19.24l-3.83,6-.25.09a.23.23,0,0,1-.17-.22V49.21a2.86,2.86,0,0,0-2.86-2.87c-4,0-5.14-4.9-5.7-10.42a18.22,18.22,0,0,1,18.88-.12c-.32,3.39-1.14,9.61-4.54,10.41a2.87,2.87,0,0,0,.65,5.66,2.81,2.81,0,0,0,.66-.08c5.49-1.29,7.52-6.79,8.38-11.42A18.09,18.09,0,0,1,118,51.45V74.87a2.86,2.86,0,1,0,5.73,0V51.45A24,24,0,0,0,99.79,27.49ZM71.7,69.19a2.13,2.13,0,1,1-2.13,2.14A2.14,2.14,0,0,1,71.7,69.19ZM33.46,62.4a2.14,2.14,0,1,1,2.13-2.13A2.14,2.14,0,0,1,33.46,62.4ZM38.61,56a6.67,6.67,0,0,0-11.05,7.38,2.81,2.81,0,0,0-.19.24l-3.83,6-.25.09a.23.23,0,0,1-.16-.22V49.21a2.86,2.86,0,0,0-2.86-2.87c-4,0-5.14-4.93-5.7-10.47a18.23,18.23,0,0,1,18.88,0c-.33,3.4-1.15,9.57-4.53,10.37a2.87,2.87,0,0,0,.65,5.66,2.81,2.81,0,0,0,.66-.08c5.44-1.28,7.49-6.7,8.36-11.3a18.16,18.16,0,0,1,3.41,8,2.87,2.87,0,0,0,.1.37A24.74,24.74,0,0,0,38.61,56Zm70.52,2.13A2.14,2.14,0,1,1,107,60.27,2.14,2.14,0,0,1,109.13,58.13Z"/></g></g></svg>