<svg xmlns="http://www.w3.org/2000/svg" viewBox="0 0 47.38 47.44"><defs><style>.cls-1{fill:#00788b;}</style></defs><title>precios-accesibles</title><g id="Layer_2" data-name="Layer 2"><g id="Layer_1-2" data-name="Layer 1"><path class="cls-1" d="M23.69,47.44A23.72,23.72,0,0,1,23.69,0a2.24,2.24,0,0,1,0,4.48,19.23,19.23,0,1,0,12.95,5,2.24,2.24,0,0,1,3-3.31,23.73,23.73,0,0,1-16,41.24"/><path class="cls-1" d="M16.32,31.8a2,2,0,0,1,2.06-2.06,2.73,2.73,0,0,1,1.27.36,8.38,8.38,0,0,0,3.07,1.12v-5.6c-3.82-.55-6.14-2.95-6.14-6.41a6.74,6.74,0,0,1,6.14-6.9V11a1.08,1.08,0,1,1,2.15,0v1.24a9.81,9.81,0,0,1,4,1.18A2.06,2.06,0,0,1,30,15.22a2,2,0,0,1-1.93,2A2.67,2.67,0,0,1,27,17a8,8,0,0,0-2.15-.72v5.27c4.08.59,6.17,3,6.17,6.48a6.78,6.78,0,0,1-6.17,7.06v1.34a1.08,1.08,0,1,1-2.15,0V35.17a11.57,11.57,0,0,1-5.39-1.6,2,2,0,0,1-1-1.77m6.4-15.41a2.45,2.45,0,0,0-1.63,2.42,2.24,2.24,0,0,0,1.63,2.29Zm3.82,11.94a2.19,2.19,0,0,0-1.67-2.26V31a2.57,2.57,0,0,0,1.67-2.65"/></g></g></svg>