<svg xmlns="http://www.w3.org/2000/svg" viewBox="0 0 88.5 90"><defs><style>.cls-1{fill:#00788b;}</style></defs><title>revision-minuciosa-ojos_1</title><g id="Layer_2" data-name="Layer 2"><g id="Isolation_Mode" data-name="Isolation Mode"><path class="cls-1" d="M49.45,53.93a3.76,3.76,0,0,1-2.7-1.14l-5.81-6a26.29,26.29,0,0,1-15.46,4.89A25.86,25.86,0,0,1,0,25.52,25.72,25.72,0,0,1,7.8,7.35,25.13,25.13,0,0,1,26.16,0a25.83,25.83,0,0,1,25.47,26.2,3.71,3.71,0,0,1-3.82,3.71A3.77,3.77,0,0,1,44.1,26.1a18.29,18.29,0,0,0-18-18.54h-.25a18.32,18.32,0,0,0-13.1,31.09A18.26,18.26,0,0,0,38.58,39a3.77,3.77,0,0,1,5.32.07l8.25,8.47a3.77,3.77,0,0,1-2.7,6.4"/><path class="cls-1" d="M34.25,22.47a3.74,3.74,0,0,1-2.7-1.14,8,8,0,0,0-11.25-.15,3.77,3.77,0,1,1-5.25-5.41,15.5,15.5,0,0,1,21.89.3,3.77,3.77,0,0,1-2.7,6.4"/><path class="cls-1" d="M76.78,90a11.62,11.62,0,0,1-8.39-3.54L46.6,64A11.72,11.72,0,1,1,63.39,47.67l21.8,22.41A11.74,11.74,0,0,1,76.78,90M55,51.67a4.19,4.19,0,0,0-3,7.12L73.79,81.19a4.3,4.3,0,0,0,5.93.07,4.21,4.21,0,0,0,.08-5.93L58,52.93a4.14,4.14,0,0,0-3-1.27"/></g></g></svg>